<?xml version="1.0" encoding="utf-8"?>
<!-- Generator: Adobe Illustrator 18.1.1, SVG Export Plug-In . SVG Version: 6.00 Build 0)  -->
<svg version="1.1" id="Layer_1" xmlns="http://www.w3.org/2000/svg" xmlns:xlink="http://www.w3.org/1999/xlink" x="0px" y="0px"
	 viewBox="0 0 100 100" enable-background="new 0 0 100 100" xml:space="preserve">
<path d="M33.2,43.5c0.1-2.2,1-4.1,2.6-5.4c4.2-3.4,9.4-1.1,11.3,2.2c0.4,0.9,0.7,1.7,0.6,2.8c-0.2,1.8-1.8,2.7-3.2,1.6
	c-0.8-0.7-1.6-1.4-2.7-1.7c-0.9-0.3-1.7-0.3-2.6,0.2c-0.6,0.3-0.7,0.7-0.6,1.5c0.2,0.8,0.7,1.5,1.4,1.8c0.3,0.2,0.7,0.4,1,0.6
	c0.8,0.7,1.2,1.6,1,2.8c-0.2,1-1,2-2.1,2c-4.3,0.3-6,6.8,0.4,4.8c1.1-0.3,2.3-0.8,3.3-1.2c0.9-0.4,2.8-1.2,3.9-1.7
	c0.9-0.4,8.6-4.5,9.4-3.5c1.5,2-5.3,5.7-6.8,6.8c-0.9,0.6-2.9,2-3.7,2.6c-1.1,0.8-2.3,1.6-3.5,2.2c-2.5,1.4-5.1,1.8-7.8,1.1
	c-4.4-1-6.6-5.7-4.8-10.2c0.7-1.7,1.7-3.2,3.1-4.4c0.2-0.2,0.5-0.4,0.8-0.7C33.5,46.3,33.1,44.9,33.2,43.5z"/>
<path d="M62.5,47.5c0.4-0.2,0.3-0.5,0.3-0.8c0.1-2,0.2-4,0.4-6c0.1-1.3,0.5-2.7,0.8-4c0.2-0.6,0.5-1.2,0.9-1.7
	c1.2-1.4,3.4-0.9,3.8,0.9c0.3,1.3,0.4,2.6,0.5,4c0.2,1.9,0.3,3.6,0.5,5.5c0,0.5,2-0.7,2.1-0.2c0.5,2-1.9,2.5-1.9,2.8
	c0.1,1,0.2,1.9,0.3,2.9c0.2,2.6,0.6,5.2,1.1,7.9c0.3,1-0.1,1.8-0.9,2.5c-0.9,0.6-1.8,0.5-2.7,0.1c-0.7-0.4-1.2-1-1.6-1.7
	c-1-1.7-1.7-3.6-2.2-5.5c-0.3-1-0.4-2-0.7-3c-0.1-0.2-0.1-0.4-0.2-0.8c-1.3,0.6-2.6,1-3.9,1.6c0.1,0.3,0.2,0.7,0.2,1
	c0.5,2.1,1.1,4.3,1.6,6.4c0.1,0.4,0.1,0.9,0.1,1.4c-0.2,1.9-2.3,2.9-3.9,1.8c-0.6-0.4-1.1-0.9-1.5-1.5c-1.4-1.9-4.1-7.9-4.4-7.8
	L51,51.2c0,0-0.2-3-0.3-4.8c-0.1-2-0.1-4.1,0.3-6.1c0.1-0.6,0.3-1.2,0.6-1.7c0.6-1,1.4-1.5,2.5-1.4c1.1,0,1.9,0.6,2.2,1.6
	c0.3,0.6,0.4,1.3,0.5,2c0.5,2.5,0.9,4.9,1.3,7.3c0,0.3,0.2,0.5,0.2,0.8C59.7,48.5,61.1,48,62.5,47.5z"/>
<path d="M49.8,37.7l-1.4,0.1c-0.5-0.1-1.2-3.1-0.9-4.5c0.3-2.4,1.8-3.1,3.4-2.6c0.7,0.2,1.8,1.6-0.1,4c-1.1,1.4-1.8,3.3-2.4,3.2"/>
<g>
	<path d="M43.5,68.5c2.8-0.9,4.8-1.8,8.5-3.9c2.7-1.6,0.2-4.4-1.4-3.3c-4.6,3.3-6,4.4-11.8,6.8c-1.5,0.6-0.7,1.9,0.7,1.6
		C41.2,69.3,43.5,68.5,43.5,68.5z"/>
</g>
</svg>
